<svg width="388" height="118" viewBox="0 0 388 118" fill="none" xmlns="http://www.w3.org/2000/svg">
<path d="M48.5071 63.2374C50.6956 63.467 53.5572 65.0242 55.656 63.3922C52.6648 62.8531 49.7135 61.3109 46.9566 60.2777C49.7833 59.1098 53.5223 61.4806 56 59.005C52.954 58.9401 49.8082 57.882 46.9217 57.2881C49.534 55.6959 53.5971 57.4528 55.656 54.6178C52.6349 55.0321 49.3646 54.4781 46.4182 54.3483C48.7514 52.3519 53.0387 53.4599 54.629 50.3554C51.7126 51.2439 48.3924 51.2039 45.466 51.5383C47.4602 49.2125 51.8622 49.6267 52.944 46.2927C50.1971 47.6203 46.9168 48.1095 44.0751 48.8931C45.6804 46.2827 50.0974 46.0032 50.6458 42.5394C48.1531 44.2863 44.9775 45.2795 42.2954 46.4973C43.4719 43.6674 47.7792 42.6991 47.7792 39.1954C45.5807 41.3066 42.6095 42.784 40.1517 44.4111C40.8696 41.4164 44.9874 39.7993 44.4391 36.3355C42.5995 38.7711 39.8925 40.6927 37.7189 42.6841C37.9631 39.6296 41.7719 37.3736 40.7101 34.0396C39.2743 36.7248 36.9013 39.0307 35.0667 41.3565C34.8324 38.302 38.2373 35.477 36.652 32.3725C35.6549 35.2574 33.6608 37.9226 32.2201 40.4881C31.5122 37.4934 34.4335 34.1843 32.3746 31.3444C31.8412 34.339 30.3007 37.2938 29.2688 40.0538C28.1022 37.2239 30.4702 33.4806 27.9975 31C27.9327 34.0496 26.8758 37.1989 26.2826 40.0888C24.6922 37.4734 26.4471 33.4057 23.6154 31.3444C24.0292 34.369 23.4758 37.6481 23.3462 40.5929C21.3521 38.257 22.4588 33.9647 19.358 32.3725C20.2404 35.2923 20.2055 38.6164 20.5395 41.5462C18.2163 39.5497 18.6301 35.1426 15.2999 34.0595C16.626 36.8046 17.1146 40.0938 17.8973 42.9337C15.265 41.2866 14.9659 36.8645 11.526 36.3155C13.2659 38.8111 14.263 41.9904 15.4794 44.6756C12.6527 43.4977 11.6856 39.1854 8.18588 39.1854C10.2947 41.3865 11.7703 44.3611 13.3955 46.8217C10.4043 46.103 8.7891 41.9854 5.3293 42.5294C7.75714 44.3711 9.68147 47.0813 11.6706 49.2574C8.6196 49.0128 6.36624 45.1996 3.03605 46.2627C5.71815 47.7002 8.02137 50.0759 10.3445 51.9127C7.29351 52.1472 4.47182 48.7383 1.37096 50.3255C4.25247 51.3237 6.91463 53.3201 9.47708 54.7676C6.48589 55.4763 3.18063 52.5465 0.343986 54.6078C3.33517 55.1419 6.28648 56.6841 9.04335 57.7223C6.21668 58.8852 2.4777 56.5144 0 58.995C3.04603 59.0549 6.19176 60.118 9.07825 60.707C6.46595 62.2991 2.40292 60.5422 0.343986 63.3822C3.36508 62.9629 6.63545 63.5169 9.58177 63.6517C7.24864 65.6481 2.96127 64.5351 1.37096 67.6446C4.28737 66.7611 7.60759 66.7961 10.534 66.4617C8.53984 68.7875 4.13781 68.3733 3.056 71.7073C5.79792 70.3797 9.08324 69.8955 11.9199 69.107C10.3146 71.7173 5.89762 71.9968 5.34924 75.4606C7.84189 73.7187 11.0175 72.7255 13.6996 71.5027C12.5231 74.3326 8.21579 75.3009 8.21579 78.8046C10.4143 76.6934 13.3856 75.216 15.8433 73.589C15.1254 76.5836 11.0076 78.2007 11.556 81.6645C13.3955 79.2339 16.1026 77.3073 18.2761 75.3159C18.0319 78.3704 14.2231 80.6264 15.285 83.9654C16.7207 81.2752 19.0937 78.9494 20.9283 76.6435C21.1626 79.698 17.7577 82.523 19.343 85.6275C20.3401 82.7476 22.3342 80.0774 23.7749 77.5119C24.4829 80.5066 21.5615 83.8157 23.6204 86.6556C24.1538 83.661 25.6943 80.7062 26.7263 77.9462C27.8928 80.7811 25.5248 84.5194 28.0025 87C28.0623 83.9504 29.1192 80.8011 29.7125 77.9112C31.3028 80.5266 29.5479 84.5943 32.3796 86.6556C31.9658 83.631 32.5192 80.3569 32.6538 77.4121C34.6479 79.743 33.5362 84.0353 36.642 85.6275C35.7596 82.7077 35.7945 79.3836 35.4605 76.4538C37.7837 78.4503 37.3699 82.8574 40.7001 83.9405C39.374 81.1904 38.8854 77.9062 38.1027 75.0613C40.7101 76.6685 40.9892 81.0906 44.449 81.6396C42.7092 79.144 41.7121 75.9647 40.4957 73.2795C43.3223 74.4574 44.2895 78.7697 47.7892 78.7697C45.6804 76.5736 44.2048 73.5939 42.5795 71.1333C45.5707 71.8521 47.186 75.9747 50.6458 75.4257C48.2179 73.584 46.2936 70.8738 44.3045 68.6977C47.3555 68.9422 49.6088 72.7554 52.944 71.6923C50.2569 70.2549 47.9338 67.8792 45.6306 66.0424C48.6816 65.8078 51.5032 69.2168 54.6041 67.6296C51.7276 66.6314 49.0604 64.6349 46.498 63.1925C47.1507 63.0133 47.8395 63.0133 48.4921 63.1925M38.5564 65.4784L33.93 63.482L32.0655 68.1686L30.221 63.5319L25.5946 65.5283L27.5887 60.9016L22.9125 59.0349L27.5887 57.1683L25.5946 52.5365L30.221 54.533L32.0805 49.8463L33.945 54.528L38.5714 52.5316L36.5772 57.1633L41.2534 59.0299L36.5772 60.8966L38.5564 65.4784ZM31.7415 44.2463C23.7201 44.2463 16.7855 50.5002 16.7855 58.9251C16.7855 67.3501 23.8348 73.5989 31.7415 73.5989C35.552 73.6007 39.2255 72.1766 42.0411 69.6061C39.3341 73.9833 32.569 77.1276 28.7054 77.1276H25.9336C24.6215 76.9523 23.3213 76.6973 22.0401 76.364C19.328 75.5317 16.8429 74.0871 14.7765 72.1415C11.5011 69.1469 9.13808 63.5918 9.13808 60.103V57.7173C9.13808 56.1401 10.0454 53.0406 10.5738 51.7779C11.3602 49.8441 12.5016 48.075 13.9389 46.5622C18.1465 42.2 22.9424 40.7027 27.3245 40.7027C30.9728 40.6861 34.5402 41.7791 37.5543 43.8371C39.0499 44.8353 41.0889 46.682 42.076 48.2991C39.2765 45.6733 35.5776 44.2227 31.7415 44.2463Z" fill="white"/>
<path d="M71.64 76.052C72.634 76.052 73.432 75.8 74.034 75.31C74.636 74.806 74.944 74.134 74.944 73.308C74.944 72.804 74.776 72.342 74.594 72.048C74.426 71.726 73.936 71.39 73.656 71.222C73.516 71.124 73.292 71.026 72.998 70.914C72.704 70.788 72.48 70.704 72.326 70.662L71.57 70.396C70.8 70.144 70.24 69.892 69.904 69.654C69.568 69.416 69.4 69.052 69.4 68.562C69.4 67.498 70.212 66.868 71.43 66.868C72.592 66.868 73.39 67.414 73.838 68.492L74.664 68.03C74.118 66.798 72.956 65.916 71.43 65.916C70.576 65.916 69.862 66.154 69.288 66.644C68.714 67.12 68.42 67.778 68.42 68.604C68.42 69.458 68.798 70.102 69.54 70.55C69.862 70.76 70.534 71.026 71.556 71.362C72.41 71.642 73.026 71.908 73.404 72.174C73.782 72.44 73.964 72.818 73.964 73.336C73.964 74.4 73.11 75.1 71.654 75.1C70.156 75.1 69.19 74.386 68.84 73.168L68 73.658C68.504 75.156 69.848 76.052 71.64 76.052Z" fill="white"/>
<path d="M81.4144 72.552C81.4144 74.33 80.4904 75.156 79.1464 75.156C77.9284 75.156 77.2424 74.428 77.2424 73.182V68.884H76.3184V73.182C76.3184 74.932 77.3684 76.052 79.0624 76.052C80.1124 76.052 80.8964 75.632 81.4144 74.792V75.884H82.3384V68.884H81.4144V72.552Z" fill="white"/>
<path d="M88.045 68.716C86.799 68.716 85.861 69.234 85.217 70.256V68.884H84.293V78.684H85.217V74.512C85.861 75.534 86.799 76.052 88.045 76.052C89.039 76.052 89.893 75.702 90.593 74.988C91.307 74.274 91.657 73.406 91.657 72.384C91.657 71.362 91.307 70.494 90.593 69.78C89.893 69.066 89.039 68.716 88.045 68.716ZM86.015 74.358C85.483 73.812 85.217 73.154 85.217 72.384C85.217 71.614 85.483 70.956 86.015 70.424C86.547 69.878 87.205 69.612 87.975 69.612C88.745 69.612 89.403 69.878 89.935 70.424C90.467 70.956 90.733 71.614 90.733 72.384C90.733 73.154 90.467 73.812 89.935 74.358C89.403 74.89 88.745 75.156 87.975 75.156C87.205 75.156 86.547 74.89 86.015 74.358Z" fill="white"/>
<path d="M96.9454 68.716C95.6994 68.716 94.7614 69.234 94.1174 70.256V68.884H93.1934V78.684H94.1174V74.512C94.7614 75.534 95.6994 76.052 96.9454 76.052C97.9394 76.052 98.7934 75.702 99.4934 74.988C100.207 74.274 100.557 73.406 100.557 72.384C100.557 71.362 100.207 70.494 99.4934 69.78C98.7934 69.066 97.9394 68.716 96.9454 68.716ZM94.9154 74.358C94.3834 73.812 94.1174 73.154 94.1174 72.384C94.1174 71.614 94.3834 70.956 94.9154 70.424C95.4474 69.878 96.1054 69.612 96.8754 69.612C97.6454 69.612 98.3034 69.878 98.8354 70.424C99.3674 70.956 99.6334 71.614 99.6334 72.384C99.6334 73.154 99.3674 73.812 98.8354 74.358C98.3034 74.89 97.6454 75.156 96.8754 75.156C96.1054 75.156 95.4474 74.89 94.9154 74.358Z" fill="white"/>
<path d="M107.96 75.002C108.674 74.288 109.038 73.42 109.038 72.384C109.038 71.348 108.674 70.48 107.96 69.78C107.246 69.066 106.378 68.716 105.356 68.716C104.334 68.716 103.452 69.066 102.738 69.78C102.024 70.48 101.674 71.348 101.674 72.384C101.674 73.42 102.024 74.288 102.738 75.002C103.452 75.702 104.334 76.052 105.356 76.052C106.378 76.052 107.246 75.702 107.96 75.002ZM103.396 74.358C102.864 73.812 102.598 73.154 102.598 72.384C102.598 71.614 102.864 70.956 103.396 70.424C103.928 69.878 104.586 69.612 105.356 69.612C106.126 69.612 106.784 69.878 107.316 70.424C107.848 70.956 108.114 71.614 108.114 72.384C108.114 73.154 107.848 73.812 107.316 74.358C106.784 74.89 106.126 75.156 105.356 75.156C104.586 75.156 103.928 74.89 103.396 74.358Z" fill="white"/>
<path d="M111.508 68.884H110.584V75.884H111.508V71.992C111.508 70.382 112.446 69.668 113.72 69.668V68.772C112.67 68.772 111.942 69.192 111.508 70.046V68.884Z" fill="white"/>
<path d="M118.833 68.884H116.817V66.924L115.893 67.204V68.884H114.423V69.78H115.893V74.022C115.893 75.646 116.873 76.178 118.833 75.884V75.072C117.489 75.128 116.817 75.226 116.817 74.022V69.78H118.833V68.884Z" fill="white"/>
<path d="M123.183 68.716C122.105 68.716 121.237 69.066 120.551 69.766C119.865 70.466 119.529 71.334 119.529 72.384C119.529 73.448 119.879 74.33 120.565 75.016C121.251 75.702 122.147 76.052 123.253 76.052C124.611 76.052 125.717 75.436 126.333 74.442L125.521 73.966C125.129 74.68 124.331 75.156 123.267 75.156C121.769 75.156 120.663 74.26 120.481 72.846H126.627C126.641 72.664 126.655 72.51 126.655 72.412C126.655 71.418 126.333 70.55 125.689 69.822C125.059 69.08 124.219 68.716 123.183 68.716ZM123.183 69.612C123.813 69.612 124.373 69.822 124.849 70.228C125.325 70.634 125.605 71.208 125.703 71.95H120.481C120.663 70.564 121.727 69.612 123.183 69.612Z" fill="white"/>
<path d="M134.145 70.256C133.501 69.234 132.563 68.716 131.317 68.716C130.323 68.716 129.469 69.066 128.755 69.78C128.055 70.494 127.705 71.362 127.705 72.384C127.705 73.406 128.055 74.274 128.755 74.988C129.469 75.702 130.323 76.052 131.317 76.052C132.563 76.052 133.501 75.534 134.145 74.512V75.884H135.069V66.084H134.145V70.256ZM129.427 74.358C128.895 73.812 128.629 73.154 128.629 72.384C128.629 71.614 128.895 70.956 129.427 70.424C129.959 69.878 130.617 69.612 131.387 69.612C132.157 69.612 132.815 69.878 133.347 70.424C133.879 70.956 134.145 71.614 134.145 72.384C134.145 73.154 133.879 73.812 133.347 74.358C132.815 74.89 132.157 75.156 131.387 75.156C130.617 75.156 129.959 74.89 129.427 74.358Z" fill="white"/>
<path d="M144.277 68.716C143.031 68.716 142.093 69.234 141.449 70.256V66.084H140.525V75.884H141.449V74.512C142.093 75.534 143.031 76.052 144.277 76.052C145.271 76.052 146.125 75.702 146.825 74.988C147.539 74.274 147.889 73.406 147.889 72.384C147.889 71.362 147.539 70.494 146.825 69.78C146.125 69.066 145.271 68.716 144.277 68.716ZM142.247 74.358C141.715 73.812 141.449 73.154 141.449 72.384C141.449 71.614 141.715 70.956 142.247 70.424C142.779 69.878 143.437 69.612 144.207 69.612C144.977 69.612 145.635 69.878 146.167 70.424C146.699 70.956 146.965 71.614 146.965 72.384C146.965 73.154 146.699 73.812 146.167 74.358C145.635 74.89 144.977 75.156 144.207 75.156C143.437 75.156 142.779 74.89 142.247 74.358Z" fill="white"/>
<path d="M151.924 74.75L149.292 68.884H148.312L151.448 75.926L151.266 76.36C150.832 77.424 150.188 77.914 149.348 77.816V78.684C150.58 78.782 151.63 77.914 152.176 76.528L155.172 68.884H154.192L151.924 74.75Z" fill="white"/>
<path d="M159.089 66.084V67.008H162.099V75.884H163.079V67.008H166.089V66.084H159.089Z" fill="white"/>
<path d="M170.626 68.716C169.576 68.716 168.792 69.136 168.274 69.976V66.084H167.35V75.884H168.274V72.216C168.274 70.438 169.198 69.612 170.542 69.612C171.76 69.612 172.446 70.34 172.446 71.586V75.884H173.37V71.586C173.37 69.836 172.32 68.716 170.626 68.716Z" fill="white"/>
<path d="M178.39 68.716C177.312 68.716 176.444 69.066 175.758 69.766C175.072 70.466 174.736 71.334 174.736 72.384C174.736 73.448 175.086 74.33 175.772 75.016C176.458 75.702 177.354 76.052 178.46 76.052C179.818 76.052 180.924 75.436 181.54 74.442L180.728 73.966C180.336 74.68 179.538 75.156 178.474 75.156C176.976 75.156 175.87 74.26 175.688 72.846H181.834C181.848 72.664 181.862 72.51 181.862 72.412C181.862 71.418 181.54 70.55 180.896 69.822C180.266 69.08 179.426 68.716 178.39 68.716ZM178.39 69.612C179.02 69.612 179.58 69.822 180.056 70.228C180.532 70.634 180.812 71.208 180.91 71.95H175.688C175.87 70.564 176.934 69.612 178.39 69.612Z" fill="white"/>
<path d="M194.714 66.084L191.452 71.544L188.19 66.084H186.972V75.884H187.952V67.568L191.382 73.308H191.522L194.952 67.568V75.884H195.932V66.084H194.714Z" fill="white"/>
<path d="M198.967 67.204C199.233 66.938 199.233 66.518 198.967 66.252C198.701 65.986 198.281 65.986 198.015 66.252C197.749 66.518 197.749 66.938 198.015 67.204C198.281 67.47 198.701 67.47 198.967 67.204ZM198.953 75.884V68.884H198.029V75.884H198.953Z" fill="white"/>
<path d="M204.19 68.716C203.14 68.716 202.356 69.136 201.838 69.976V68.884H200.914V75.884H201.838V72.216C201.838 70.438 202.762 69.612 204.106 69.612C205.324 69.612 206.01 70.34 206.01 71.586V75.884H206.934V71.586C206.934 69.836 205.884 68.716 204.19 68.716Z" fill="white"/>
<path d="M209.659 67.204C209.925 66.938 209.925 66.518 209.659 66.252C209.393 65.986 208.973 65.986 208.707 66.252C208.441 66.518 208.441 66.938 208.707 67.204C208.973 67.47 209.393 67.47 209.659 67.204ZM209.645 75.884V68.884H208.721V75.884H209.645Z" fill="white"/>
<path d="M212.334 70.718C212.334 70.004 213.006 69.612 213.804 69.612C214.658 69.612 215.218 69.934 215.484 70.592L216.254 70.144C215.848 69.262 214.938 68.716 213.804 68.716C213.118 68.716 212.544 68.912 212.082 69.29C211.634 69.668 211.41 70.144 211.41 70.718C211.41 72.23 212.88 72.552 214.056 72.846C214.854 73.056 215.498 73.406 215.498 74.036C215.498 74.806 214.798 75.156 213.888 75.156C212.95 75.156 212.236 74.708 211.97 73.98L211.186 74.442C211.564 75.394 212.544 76.052 213.888 76.052C214.63 76.052 215.246 75.87 215.708 75.492C216.184 75.114 216.422 74.638 216.422 74.036C216.422 72.524 214.952 72.202 213.776 71.908C212.978 71.698 212.334 71.348 212.334 70.718Z" fill="white"/>
<path d="M221.4 68.884H219.384V66.924L218.46 67.204V68.884H216.99V69.78H218.46V74.022C218.46 75.646 219.44 76.178 221.4 75.884V75.072C220.056 75.128 219.384 75.226 219.384 74.022V69.78H221.4V68.884Z" fill="white"/>
<path d="M223.864 68.884H222.94V75.884H223.864V71.992C223.864 70.382 224.802 69.668 226.076 69.668V68.772C225.026 68.772 224.298 69.192 223.864 70.046V68.884Z" fill="white"/>
<path d="M230.251 74.75L227.619 68.884H226.639L229.775 75.926L229.593 76.36C229.159 77.424 228.515 77.914 227.675 77.816V78.684C228.907 78.782 229.957 77.914 230.503 76.528L233.499 68.884H232.519L230.251 74.75Z" fill="white"/>
<path d="M243.981 75.002C244.695 74.288 245.059 73.42 245.059 72.384C245.059 71.348 244.695 70.48 243.981 69.78C243.267 69.066 242.399 68.716 241.377 68.716C240.355 68.716 239.473 69.066 238.759 69.78C238.045 70.48 237.695 71.348 237.695 72.384C237.695 73.42 238.045 74.288 238.759 75.002C239.473 75.702 240.355 76.052 241.377 76.052C242.399 76.052 243.267 75.702 243.981 75.002ZM239.417 74.358C238.885 73.812 238.619 73.154 238.619 72.384C238.619 71.614 238.885 70.956 239.417 70.424C239.949 69.878 240.607 69.612 241.377 69.612C242.147 69.612 242.805 69.878 243.337 70.424C243.869 70.956 244.135 71.614 244.135 72.384C244.135 73.154 243.869 73.812 243.337 74.358C242.805 74.89 242.147 75.156 241.377 75.156C240.607 75.156 239.949 74.89 239.417 74.358Z" fill="white"/>
<path d="M249.832 65.916C247.942 65.79 246.892 66.77 246.892 68.604V68.884H245.702V69.78H246.892V75.884H247.816V69.78H249.832V68.884H247.816V68.604C247.816 67.26 248.474 66.7 249.832 66.812V65.916Z" fill="white"/>
<path d="M259.034 76.052C260.84 76.052 262.478 75.1 263.276 73.63L262.408 73.14C261.792 74.33 260.49 75.1 259.034 75.1C257.816 75.1 256.808 74.708 256.038 73.91C255.268 73.112 254.876 72.146 254.876 70.984C254.876 69.822 255.268 68.856 256.038 68.058C256.808 67.26 257.816 66.868 259.034 66.868C260.49 66.868 261.792 67.638 262.408 68.828L263.276 68.324C262.45 66.854 260.84 65.916 259.034 65.916C257.55 65.916 256.318 66.406 255.352 67.386C254.386 68.366 253.896 69.57 253.896 70.984C253.896 72.398 254.386 73.602 255.352 74.582C256.318 75.562 257.55 76.052 259.034 76.052Z" fill="white"/>
<path d="M269.676 72.552C269.676 74.33 268.752 75.156 267.408 75.156C266.19 75.156 265.504 74.428 265.504 73.182V68.884H264.58V73.182C264.58 74.932 265.63 76.052 267.324 76.052C268.374 76.052 269.158 75.632 269.676 74.792V75.884H270.6V68.884H269.676V72.552Z" fill="white"/>
<path d="M273.479 75.884V65.664H272.555V75.884H273.479Z" fill="white"/>
<path d="M279.15 68.884H277.134V66.924L276.21 67.204V68.884H274.74V69.78H276.21V74.022C276.21 75.646 277.19 76.178 279.15 75.884V75.072C277.806 75.128 277.134 75.226 277.134 74.022V69.78H279.15V68.884Z" fill="white"/>
<path d="M285.618 72.552C285.618 74.33 284.694 75.156 283.35 75.156C282.132 75.156 281.446 74.428 281.446 73.182V68.884H280.522V73.182C280.522 74.932 281.572 76.052 283.266 76.052C284.316 76.052 285.1 75.632 285.618 74.792V75.884H286.542V68.884H285.618V72.552Z" fill="white"/>
<path d="M289.42 68.884H288.496V75.884H289.42V71.992C289.42 70.382 290.358 69.668 291.632 69.668V68.772C290.582 68.772 289.854 69.192 289.42 70.046V68.884Z" fill="white"/>
<path d="M295.709 68.716C294.631 68.716 293.763 69.066 293.077 69.766C292.391 70.466 292.055 71.334 292.055 72.384C292.055 73.448 292.405 74.33 293.091 75.016C293.777 75.702 294.673 76.052 295.779 76.052C297.137 76.052 298.243 75.436 298.859 74.442L298.047 73.966C297.655 74.68 296.857 75.156 295.793 75.156C294.295 75.156 293.189 74.26 293.007 72.846H299.153C299.167 72.664 299.181 72.51 299.181 72.412C299.181 71.418 298.859 70.55 298.215 69.822C297.585 69.08 296.745 68.716 295.709 68.716ZM295.709 69.612C296.339 69.612 296.899 69.822 297.375 70.228C297.851 70.634 298.131 71.208 298.229 71.95H293.007C293.189 70.564 294.253 69.612 295.709 69.612Z" fill="white"/>
<path d="M310.17 70.256C309.526 69.234 308.588 68.716 307.342 68.716C306.348 68.716 305.494 69.066 304.78 69.78C304.08 70.494 303.73 71.362 303.73 72.384C303.73 73.406 304.08 74.274 304.78 74.988C305.494 75.702 306.348 76.052 307.342 76.052C308.588 76.052 309.526 75.534 310.17 74.512V75.884H311.094V68.884H310.17V70.256ZM305.452 74.358C304.92 73.812 304.654 73.154 304.654 72.384C304.654 71.614 304.92 70.956 305.452 70.424C305.984 69.878 306.642 69.612 307.412 69.612C308.182 69.612 308.84 69.878 309.372 70.424C309.904 70.956 310.17 71.614 310.17 72.384C310.17 73.154 309.904 73.812 309.372 74.358C308.84 74.89 308.182 75.156 307.412 75.156C306.642 75.156 305.984 74.89 305.452 74.358Z" fill="white"/>
<path d="M316.327 68.716C315.277 68.716 314.493 69.136 313.975 69.976V68.884H313.051V75.884H313.975V72.216C313.975 70.438 314.899 69.612 316.243 69.612C317.461 69.612 318.147 70.34 318.147 71.586V75.884H319.071V71.586C319.071 69.836 318.021 68.716 316.327 68.716Z" fill="white"/>
<path d="M326.878 70.256C326.233 69.234 325.296 68.716 324.049 68.716C323.055 68.716 322.202 69.066 321.488 69.78C320.788 70.494 320.438 71.362 320.438 72.384C320.438 73.406 320.788 74.274 321.488 74.988C322.202 75.702 323.055 76.052 324.049 76.052C325.296 76.052 326.233 75.534 326.878 74.512V75.884H327.802V66.084H326.878V70.256ZM322.16 74.358C321.628 73.812 321.361 73.154 321.361 72.384C321.361 71.614 321.628 70.956 322.16 70.424C322.691 69.878 323.35 69.612 324.12 69.612C324.889 69.612 325.547 69.878 326.079 70.424C326.612 70.956 326.878 71.614 326.878 72.384C326.878 73.154 326.612 73.812 326.079 74.358C325.547 74.89 324.889 75.156 324.12 75.156C323.35 75.156 322.691 74.89 322.16 74.358Z" fill="white"/>
<path d="M332.558 66.084V67.008H335.568V75.884H336.548V67.008H339.558V66.084H332.558Z" fill="white"/>
<path d="M345.427 75.002C346.141 74.288 346.505 73.42 346.505 72.384C346.505 71.348 346.141 70.48 345.427 69.78C344.713 69.066 343.845 68.716 342.823 68.716C341.801 68.716 340.919 69.066 340.205 69.78C339.491 70.48 339.141 71.348 339.141 72.384C339.141 73.42 339.491 74.288 340.205 75.002C340.919 75.702 341.801 76.052 342.823 76.052C343.845 76.052 344.713 75.702 345.427 75.002ZM340.863 74.358C340.331 73.812 340.065 73.154 340.065 72.384C340.065 71.614 340.331 70.956 340.863 70.424C341.395 69.878 342.053 69.612 342.823 69.612C343.593 69.612 344.251 69.878 344.783 70.424C345.315 70.956 345.581 71.614 345.581 72.384C345.581 73.154 345.315 73.812 344.783 74.358C344.251 74.89 343.593 75.156 342.823 75.156C342.053 75.156 341.395 74.89 340.863 74.358Z" fill="white"/>
<path d="M352.979 72.552C352.979 74.33 352.055 75.156 350.711 75.156C349.493 75.156 348.807 74.428 348.807 73.182V68.884H347.883V73.182C347.883 74.932 348.933 76.052 350.627 76.052C351.677 76.052 352.461 75.632 352.979 74.792V75.884H353.903V68.884H352.979V72.552Z" fill="white"/>
<path d="M356.781 68.884H355.858V75.884H356.781V71.992C356.781 70.382 357.72 69.668 358.993 69.668V68.772C357.944 68.772 357.215 69.192 356.781 70.046V68.884Z" fill="white"/>
<path d="M361.198 67.204C361.464 66.938 361.464 66.518 361.198 66.252C360.932 65.986 360.512 65.986 360.246 66.252C359.98 66.518 359.98 66.938 360.246 67.204C360.512 67.47 360.932 67.47 361.198 67.204ZM361.184 75.884V68.884H360.26V75.884H361.184Z" fill="white"/>
<path d="M363.873 70.718C363.873 70.004 364.545 69.612 365.343 69.612C366.197 69.612 366.757 69.934 367.023 70.592L367.793 70.144C367.387 69.262 366.477 68.716 365.343 68.716C364.657 68.716 364.083 68.912 363.621 69.29C363.173 69.668 362.949 70.144 362.949 70.718C362.949 72.23 364.419 72.552 365.595 72.846C366.393 73.056 367.037 73.406 367.037 74.036C367.037 74.806 366.337 75.156 365.427 75.156C364.489 75.156 363.775 74.708 363.509 73.98L362.725 74.442C363.103 75.394 364.083 76.052 365.427 76.052C366.169 76.052 366.785 75.87 367.247 75.492C367.723 75.114 367.961 74.638 367.961 74.036C367.961 72.524 366.491 72.202 365.315 71.908C364.517 71.698 363.873 71.348 363.873 70.718Z" fill="white"/>
<path d="M376.964 68.716C375.956 68.716 375.2 69.136 374.696 69.99C374.29 69.136 373.576 68.716 372.568 68.716C371.644 68.716 370.93 69.108 370.426 69.906V68.884H369.502V75.884H370.426V72.006C370.426 70.382 371.322 69.612 372.442 69.612C373.45 69.612 374.08 70.284 374.08 71.516V75.884H375.004V72.006C375.004 70.368 375.788 69.612 376.95 69.612C377.972 69.612 378.658 70.298 378.658 71.516V75.884H379.582V71.516C379.582 69.794 378.532 68.716 376.964 68.716Z" fill="white"/>
<g filter="url(#filter0_d_3053_394)">
<path d="M83.1075 40.3424C83.0422 41.1739 82.9933 41.9728 82.9606 42.7391C82.9443 43.5054 82.9361 44.0924 82.9361 44.5C82.9361 44.8587 82.9443 45.2011 82.9606 45.5272C82.9769 45.8533 82.9933 46.1304 83.0096 46.3587H82.4464C82.1852 44.9891 81.8506 43.9049 81.4425 43.106C81.0507 42.3071 80.5774 41.7446 80.0224 41.4185C79.4673 41.0761 78.8144 40.9049 78.0635 40.9049H77.5004V54.8696C77.5004 55.5217 77.5656 56.0109 77.6962 56.337C77.8431 56.663 78.1043 56.8832 78.4798 56.9973C78.8552 57.0951 79.4021 57.1522 80.1203 57.1685V57.6576C79.6143 57.6413 78.9368 57.625 78.088 57.6087C77.2555 57.5924 76.3822 57.5842 75.4681 57.5842C74.5703 57.5842 73.7214 57.5924 72.9216 57.6087C72.1217 57.625 71.4769 57.6413 70.9872 57.6576V57.1685C71.7218 57.1522 72.2768 57.0951 72.6522 56.9973C73.0277 56.8832 73.2807 56.663 73.4113 56.337C73.5419 56.0109 73.6072 55.5217 73.6072 54.8696V40.9049H73.0685C72.3176 40.9049 71.6647 41.0761 71.1097 41.4185C70.5546 41.7446 70.0813 42.3071 69.6895 43.106C69.2977 43.8886 68.9549 44.9728 68.6611 46.3587H68.0979C68.1306 46.1304 68.1469 45.8533 68.1469 45.5272C68.1632 45.2011 68.1714 44.8587 68.1714 44.5C68.1714 44.0924 68.1551 43.5054 68.1224 42.7391C68.1061 41.9728 68.0653 41.1739 68 40.3424C68.7509 40.3587 69.5671 40.375 70.4485 40.3913C71.3463 40.4076 72.2441 40.4158 73.1419 40.4158C74.0397 40.4158 74.8478 40.4158 75.566 40.4158C76.3006 40.4158 77.1086 40.4158 77.9901 40.4158C78.8879 40.4158 79.7857 40.4076 80.6835 40.3913C81.5813 40.375 82.3893 40.3587 83.1075 40.3424Z" fill="white"/>
<path d="M93.3021 40.2935L99.252 55.6033C99.4806 56.1902 99.7336 56.5978 100.011 56.8261C100.305 57.038 100.566 57.1522 100.795 57.1685V57.6576C100.305 57.625 99.7254 57.6087 99.0561 57.6087C98.4032 57.5924 97.7421 57.5842 97.0728 57.5842C96.3219 57.5842 95.6119 57.5924 94.9426 57.6087C94.2733 57.6087 93.7428 57.625 93.351 57.6576V57.1685C94.1835 57.1359 94.7059 56.9973 94.9181 56.7527C95.1466 56.4918 95.0977 55.9457 94.7712 55.1141L90.6087 43.7418L91.0494 43.106L87.3276 52.7908C86.8706 53.9973 86.642 54.9103 86.642 55.5299C86.6584 56.1495 86.8624 56.5734 87.2542 56.8016C87.6459 57.0136 88.1683 57.1359 88.8212 57.1685V57.6576C88.2826 57.625 87.7684 57.6087 87.2787 57.6087C86.7889 57.5924 86.2911 57.5842 85.785 57.5842C85.4259 57.5842 85.0831 57.5924 84.7566 57.6087C84.4465 57.6087 84.169 57.625 83.9241 57.6576V57.1685C84.2669 57.1033 84.6179 56.8832 84.977 56.5082C85.3361 56.1332 85.6871 55.4973 86.0299 54.6005L91.6126 40.2935C91.8738 40.3098 92.1513 40.3179 92.4451 40.3179C92.7552 40.3179 93.0409 40.3098 93.3021 40.2935ZM95.0161 50.6141V51.1033H87.7194L87.9642 50.6141H95.0161Z" fill="white"/>
<path d="M102.936 40.3424C103.344 40.3587 103.891 40.375 104.577 40.3913C105.279 40.4076 105.972 40.4158 106.658 40.4158C107.441 40.4158 108.201 40.4076 108.935 40.3913C109.67 40.375 110.192 40.3668 110.502 40.3668C112.526 40.3668 114.036 40.7255 115.032 41.4429C116.044 42.1603 116.55 43.0815 116.55 44.2065C116.55 44.7772 116.379 45.356 116.036 45.9429C115.693 46.5299 115.163 47.0516 114.444 47.5082C113.726 47.9647 112.796 48.2989 111.653 48.5109V48.5598C113.187 48.6739 114.403 48.9511 115.301 49.3913C116.199 49.8315 116.844 50.3614 117.236 50.981C117.627 51.6005 117.823 52.2446 117.823 52.913C117.823 54.4457 117.219 55.6196 116.011 56.4348C114.82 57.25 113.171 57.6576 111.065 57.6576C110.674 57.6576 110.102 57.6495 109.351 57.6332C108.617 57.6005 107.735 57.5842 106.707 57.5842C105.989 57.5842 105.279 57.5924 104.577 57.6087C103.891 57.6087 103.344 57.625 102.936 57.6576V57.1685C103.458 57.1359 103.85 57.0707 104.111 56.9728C104.373 56.875 104.544 56.6793 104.626 56.3859C104.724 56.0924 104.773 55.6522 104.773 55.0652V42.9348C104.773 42.3315 104.724 41.8913 104.626 41.6141C104.544 41.3207 104.364 41.125 104.087 41.0272C103.826 40.913 103.442 40.8478 102.936 40.8315V40.3424ZM110.184 40.8315C109.547 40.8315 109.131 40.9701 108.935 41.2473C108.756 41.5245 108.666 42.087 108.666 42.9348V55.0652C108.666 55.913 108.772 56.4674 108.984 56.7283C109.196 56.9728 109.653 57.0951 110.355 57.0951C111.531 57.0951 112.388 56.7283 112.926 55.9946C113.481 55.2446 113.759 54.1848 113.759 52.8152C113.759 51.5598 113.44 50.5897 112.804 49.9049C112.183 49.2201 111.147 48.8777 109.694 48.8777H107.613C107.613 48.8777 107.613 48.8125 107.613 48.6821C107.613 48.5353 107.613 48.462 107.613 48.462H109.719C110.486 48.462 111.073 48.2826 111.482 47.9239C111.89 47.5489 112.175 47.0598 112.339 46.4565C112.502 45.837 112.583 45.1766 112.583 44.4755C112.583 43.269 112.396 42.3641 112.02 41.7609C111.645 41.1413 111.033 40.8315 110.184 40.8315Z" fill="white"/>
<path d="M129.189 40.2935L135.139 55.6033C135.368 56.1902 135.621 56.5978 135.899 56.8261C136.192 57.038 136.454 57.1522 136.682 57.1685V57.6576C136.192 57.625 135.613 57.6087 134.944 57.6087C134.291 57.5924 133.63 57.5842 132.96 57.5842C132.209 57.5842 131.499 57.5924 130.83 57.6087C130.161 57.6087 129.63 57.625 129.238 57.6576V57.1685C130.071 57.1359 130.593 56.9973 130.806 56.7527C131.034 56.4918 130.985 55.9457 130.659 55.1141L126.496 43.7418L126.937 43.106L123.215 52.7908C122.758 53.9973 122.529 54.9103 122.529 55.5299C122.546 56.1495 122.75 56.5734 123.142 56.8016C123.533 57.0136 124.056 57.1359 124.709 57.1685V57.6576C124.17 57.625 123.656 57.6087 123.166 57.6087C122.676 57.5924 122.179 57.5842 121.672 57.5842C121.313 57.5842 120.971 57.5924 120.644 57.6087C120.334 57.6087 120.056 57.625 119.812 57.6576V57.1685C120.154 57.1033 120.505 56.8832 120.864 56.5082C121.224 56.1332 121.575 55.4973 121.917 54.6005L127.5 40.2935C127.761 40.3098 128.039 40.3179 128.333 40.3179C128.643 40.3179 128.928 40.3098 129.189 40.2935ZM130.903 50.6141V51.1033H123.607L123.852 50.6141H130.903Z" fill="white"/>
<path d="M138.824 40.3424C139.232 40.3587 139.778 40.375 140.464 40.3913C141.166 40.4076 141.86 40.4158 142.545 40.4158C143.329 40.4158 144.088 40.4076 144.823 40.3913C145.557 40.375 146.079 40.3668 146.39 40.3668C148.659 40.3668 150.356 40.7418 151.483 41.4918C152.609 42.2255 153.172 43.269 153.172 44.6223C153.172 45.1766 153.058 45.7391 152.829 46.3098C152.601 46.8641 152.209 47.3859 151.654 47.875C151.115 48.3478 150.373 48.731 149.426 49.0245C148.479 49.3016 147.287 49.4402 145.851 49.4402H143.5V48.9511H145.606C146.569 48.9511 147.296 48.7717 147.785 48.413C148.291 48.038 148.634 47.5489 148.814 46.9457C149.01 46.3261 149.107 45.6413 149.107 44.8913C149.107 43.6033 148.879 42.6087 148.422 41.9076C147.965 41.1902 147.181 40.8315 146.071 40.8315C145.435 40.8315 145.018 40.9701 144.823 41.2473C144.643 41.5245 144.553 42.087 144.553 42.9348V55.0652C144.553 55.6522 144.594 56.0924 144.676 56.3859C144.774 56.6793 144.953 56.875 145.214 56.9728C145.475 57.0707 145.867 57.1359 146.39 57.1685V57.6576C145.949 57.625 145.394 57.6087 144.725 57.6087C144.055 57.5924 143.378 57.5842 142.692 57.5842C141.909 57.5842 141.166 57.5924 140.464 57.6087C139.778 57.6087 139.232 57.625 138.824 57.6576V57.1685C139.346 57.1359 139.738 57.0707 139.999 56.9728C140.26 56.875 140.431 56.6793 140.513 56.3859C140.611 56.0924 140.66 55.6522 140.66 55.0652V42.9348C140.66 42.3315 140.611 41.8913 140.513 41.6141C140.431 41.3207 140.252 41.125 139.974 41.0272C139.713 40.913 139.33 40.8478 138.824 40.8315V40.3424ZM143.451 49.0245C144.153 49.0408 144.757 49.0734 145.263 49.1223C145.786 49.1712 146.243 49.2201 146.634 49.269C147.026 49.3016 147.377 49.3261 147.687 49.3424C149.173 49.4728 150.266 49.7908 150.968 50.2962C151.687 50.8016 152.152 51.5598 152.364 52.5707L152.927 55.0897C153.074 55.7418 153.229 56.1984 153.392 56.4592C153.556 56.7201 153.792 56.8505 154.102 56.8505C154.315 56.8342 154.486 56.7853 154.617 56.7038C154.764 56.606 154.919 56.4674 155.082 56.288L155.425 56.5815C154.984 57.087 154.511 57.4457 154.005 57.6576C153.499 57.8859 152.886 58 152.168 58C151.287 58 150.56 57.8125 149.989 57.4375C149.418 57.0625 149.042 56.3696 148.863 55.3587L148.422 52.913C148.308 52.2283 148.169 51.6332 148.006 51.1277C147.842 50.606 147.614 50.1984 147.32 49.9049C147.043 49.5951 146.651 49.4402 146.145 49.4402H143.5L143.451 49.0245Z" fill="white"/>
<path d="M157.736 40.3424C158.144 40.3587 158.691 40.375 159.376 40.3913C160.078 40.4076 160.772 40.4158 161.457 40.4158C162.241 40.4158 163 40.4076 163.735 40.3913C164.469 40.375 164.992 40.3668 165.302 40.3668C167.571 40.3668 169.268 40.7418 170.395 41.4918C171.521 42.2255 172.084 43.269 172.084 44.6223C172.084 45.1766 171.97 45.7391 171.741 46.3098C171.513 46.8641 171.121 47.3859 170.566 47.875C170.027 48.3478 169.285 48.731 168.338 49.0245C167.391 49.3016 166.199 49.4402 164.763 49.4402H162.412V48.9511H164.518C165.481 48.9511 166.208 48.7717 166.697 48.413C167.203 48.038 167.546 47.5489 167.726 46.9457C167.922 46.3261 168.02 45.6413 168.02 44.8913C168.02 43.6033 167.791 42.6087 167.334 41.9076C166.877 41.1902 166.093 40.8315 164.983 40.8315C164.347 40.8315 163.931 40.9701 163.735 41.2473C163.555 41.5245 163.465 42.087 163.465 42.9348V55.0652C163.465 55.6522 163.506 56.0924 163.588 56.3859C163.686 56.6793 163.865 56.875 164.126 56.9728C164.388 57.0707 164.779 57.1359 165.302 57.1685V57.6576C164.861 57.625 164.306 57.6087 163.637 57.6087C162.967 57.5924 162.29 57.5842 161.604 57.5842C160.821 57.5842 160.078 57.5924 159.376 57.6087C158.691 57.6087 158.144 57.625 157.736 57.6576V57.1685C158.258 57.1359 158.65 57.0707 158.911 56.9728C159.172 56.875 159.344 56.6793 159.425 56.3859C159.523 56.0924 159.572 55.6522 159.572 55.0652V42.9348C159.572 42.3315 159.523 41.8913 159.425 41.6141C159.344 41.3207 159.164 41.125 158.887 41.0272C158.625 40.913 158.242 40.8478 157.736 40.8315V40.3424ZM162.363 49.0245C163.065 49.0408 163.669 49.0734 164.175 49.1223C164.698 49.1712 165.155 49.2201 165.547 49.269C165.938 49.3016 166.289 49.3261 166.599 49.3424C168.085 49.4728 169.179 49.7908 169.88 50.2962C170.599 50.8016 171.064 51.5598 171.276 52.5707L171.839 55.0897C171.986 55.7418 172.141 56.1984 172.305 56.4592C172.468 56.7201 172.704 56.8505 173.015 56.8505C173.227 56.8342 173.398 56.7853 173.529 56.7038C173.676 56.606 173.831 56.4674 173.994 56.288L174.337 56.5815C173.896 57.087 173.423 57.4457 172.917 57.6576C172.411 57.8859 171.799 58 171.08 58C170.199 58 169.472 57.8125 168.901 57.4375C168.33 57.0625 167.954 56.3696 167.775 55.3587L167.334 52.913C167.22 52.2283 167.081 51.6332 166.918 51.1277C166.755 50.606 166.526 50.1984 166.232 49.9049C165.955 49.5951 165.563 49.4402 165.057 49.4402H162.412L162.363 49.0245Z" fill="white"/>
<path d="M192.173 40.3424V40.8315C191.651 40.8967 191.251 41.0353 190.974 41.2473C190.712 41.4429 190.541 41.7609 190.459 42.2011C190.378 42.6413 190.337 43.2609 190.337 44.0598V50.5408C190.337 51.6005 190.263 52.5707 190.117 53.4511C189.97 54.3315 189.708 55.0897 189.333 55.7255C188.909 56.4266 188.288 56.981 187.472 57.3886C186.656 57.7962 185.619 58 184.362 58C183.612 58 182.844 57.9103 182.061 57.731C181.277 57.5679 180.575 57.25 179.955 56.7772C179.433 56.337 179.033 55.8397 178.755 55.2853C178.478 54.731 178.29 54.0788 178.192 53.3288C178.094 52.5625 178.045 51.6576 178.045 50.6141V42.9348C178.045 42.3315 177.996 41.8913 177.898 41.6141C177.817 41.3207 177.645 41.125 177.384 41.0272C177.123 40.913 176.731 40.8478 176.209 40.8315V40.3424C176.617 40.3587 177.164 40.375 177.849 40.3913C178.551 40.4076 179.278 40.4158 180.029 40.4158C180.779 40.4158 181.498 40.4076 182.183 40.3913C182.885 40.375 183.465 40.3587 183.922 40.3424V40.8315C183.367 40.8478 182.942 40.913 182.648 41.0272C182.371 41.125 182.183 41.3207 182.085 41.6141C181.987 41.8913 181.938 42.3315 181.938 42.9348V52.1549C181.938 53.2473 182.036 54.1685 182.232 54.9185C182.428 55.6522 182.771 56.2065 183.261 56.5815C183.767 56.9565 184.452 57.144 185.317 57.144C186.46 57.144 187.35 56.875 187.986 56.337C188.639 55.7989 189.096 55.0571 189.357 54.1114C189.635 53.1495 189.774 52.0489 189.774 50.8098V44.3533C189.774 43.4565 189.717 42.7717 189.602 42.2989C189.488 41.8098 189.26 41.4592 188.917 41.2473C188.59 41.0353 188.084 40.8967 187.399 40.8315V40.3424C187.709 40.3587 188.117 40.375 188.623 40.3913C189.129 40.4076 189.602 40.4158 190.043 40.4158C190.435 40.4158 190.818 40.4076 191.194 40.3913C191.586 40.375 191.912 40.3587 192.173 40.3424Z" fill="white"/>
<path d="M211.454 40.3424V40.8071C210.932 40.9212 210.369 41.1495 209.765 41.4918C209.177 41.8342 208.557 42.3886 207.904 43.1549L203.301 48.6332L204.721 46.6033L210.548 55.6766C210.777 56.0516 211.022 56.3533 211.283 56.5815C211.544 56.8098 211.887 57.0054 212.311 57.1685V57.6576C211.74 57.625 211.103 57.6087 210.402 57.6087C209.7 57.5924 209.063 57.5842 208.492 57.5842C208.149 57.5842 207.733 57.5924 207.243 57.6087C206.753 57.6087 206.133 57.625 205.382 57.6576V57.1685C206.051 57.1359 206.451 57.0462 206.582 56.8995C206.729 56.7364 206.672 56.4592 206.41 56.0679L202.86 50.3207C202.632 49.9457 202.427 49.6685 202.248 49.4891C202.068 49.2935 201.889 49.163 201.709 49.0978C201.53 49.0163 201.293 48.9674 200.999 48.9511V48.4375C201.717 48.4212 202.354 48.2255 202.909 47.8505C203.48 47.4755 204.101 46.9049 204.77 46.1386L206.215 44.4022C206.835 43.6685 207.194 43.0408 207.292 42.519C207.406 41.981 207.3 41.5652 206.974 41.2717C206.663 40.9783 206.182 40.8234 205.529 40.8071V40.3424C206.133 40.3587 206.704 40.375 207.243 40.3913C207.798 40.4076 208.435 40.4158 209.153 40.4158C210.1 40.4158 210.867 40.3913 211.454 40.3424ZM202.982 40.3424V40.8315C202.46 40.8478 202.06 40.913 201.783 41.0272C201.522 41.125 201.35 41.3207 201.269 41.6141C201.187 41.8913 201.146 42.3315 201.146 42.9348V55.0652C201.146 55.6522 201.187 56.0924 201.269 56.3859C201.366 56.6793 201.546 56.875 201.807 56.9728C202.068 57.0707 202.46 57.1359 202.982 57.1685V57.6576C202.542 57.625 201.987 57.6087 201.317 57.6087C200.648 57.5924 199.971 57.5842 199.285 57.5842C198.502 57.5842 197.759 57.5924 197.057 57.6087C196.371 57.6087 195.825 57.625 195.416 57.6576V57.1685C195.939 57.1359 196.331 57.0707 196.592 56.9728C196.853 56.875 197.024 56.6793 197.106 56.3859C197.204 56.0924 197.253 55.6522 197.253 55.0652V42.9348C197.253 42.3315 197.204 41.8913 197.106 41.6141C197.024 41.3207 196.845 41.125 196.567 41.0272C196.306 40.913 195.923 40.8478 195.416 40.8315V40.3424C195.825 40.3587 196.371 40.375 197.057 40.3913C197.759 40.4076 198.502 40.4158 199.285 40.4158C199.971 40.4158 200.648 40.4076 201.317 40.3913C201.987 40.375 202.542 40.3587 202.982 40.3424Z" fill="white"/>
<path d="M235.095 40.3424V40.8315L226.721 57.0951H229.268C229.823 57.0951 230.378 57.0054 230.933 56.8261C231.504 56.6467 232.026 56.3533 232.5 55.9457C232.989 55.538 233.406 55 233.748 54.3315C234.091 53.6467 234.32 52.7989 234.434 51.788H234.997C234.948 52.3424 234.924 53.0598 234.924 53.9402C234.924 54.3152 234.932 54.8451 234.948 55.5299C234.965 56.2147 235.014 56.9239 235.095 57.6576C234.197 57.625 233.177 57.6087 232.034 57.6087C230.908 57.5924 229.896 57.5842 228.998 57.5842C227.937 57.5842 226.827 57.5924 225.668 57.6087C224.509 57.6087 223.424 57.625 222.412 57.6576V57.1685L230.81 40.9049H228.166C227.35 40.9049 226.599 41.0598 225.913 41.3696C225.228 41.663 224.656 42.1766 224.199 42.9103C223.742 43.6277 223.432 44.6304 223.269 45.9185H222.706C222.738 45.6902 222.754 45.413 222.754 45.087C222.771 44.7609 222.779 44.4185 222.779 44.0598C222.779 43.6848 222.763 43.1549 222.73 42.4701C222.714 41.7853 222.673 41.0761 222.608 40.3424C223.424 40.375 224.338 40.3995 225.35 40.4158C226.378 40.4158 227.301 40.4158 228.117 40.4158C229.21 40.4158 230.378 40.4158 231.618 40.4158C232.859 40.3995 234.018 40.375 235.095 40.3424Z" fill="white"/>
<path d="M246.544 40.3424V40.8315C246.021 40.8478 245.621 40.913 245.344 41.0272C245.083 41.125 244.911 41.3207 244.83 41.6141C244.748 41.8913 244.707 42.3315 244.707 42.9348V55.0652C244.707 55.6522 244.748 56.0924 244.83 56.3859C244.928 56.6793 245.107 56.875 245.368 56.9728C245.629 57.0707 246.021 57.1359 246.544 57.1685V57.6576C246.103 57.625 245.548 57.6087 244.879 57.6087C244.209 57.5924 243.532 57.5842 242.846 57.5842C242.046 57.5842 241.304 57.5924 240.618 57.6087C239.949 57.6087 239.402 57.625 238.978 57.6576V57.1685C239.5 57.1359 239.892 57.0707 240.153 56.9728C240.414 56.875 240.585 56.6793 240.667 56.3859C240.765 56.0924 240.814 55.6522 240.814 55.0652V42.9348C240.814 42.3315 240.765 41.8913 240.667 41.6141C240.585 41.3207 240.406 41.125 240.128 41.0272C239.867 40.913 239.484 40.8478 238.978 40.8315V40.3424C239.402 40.3587 239.949 40.375 240.618 40.3913C241.304 40.4076 242.046 40.4158 242.846 40.4158C243.532 40.4158 244.209 40.4076 244.879 40.3913C245.548 40.375 246.103 40.3587 246.544 40.3424Z" fill="white"/>
<path d="M264.417 40.3179V40.8071C264.058 40.9538 263.691 41.2473 263.316 41.6875C262.94 42.1114 262.524 42.7636 262.067 43.644L257.439 52.7908H256.288L250.559 42.2011C250.265 41.6467 249.995 41.2799 249.751 41.1005C249.522 40.9212 249.318 40.8315 249.139 40.8315V40.3179C249.579 40.3668 250.028 40.3995 250.485 40.4158C250.959 40.4321 251.473 40.4402 252.028 40.4402C252.746 40.4402 253.521 40.4321 254.354 40.4158C255.186 40.3832 255.945 40.3505 256.631 40.3179V40.8315C256.223 40.8315 255.856 40.8641 255.529 40.9293C255.203 40.9946 254.974 41.1168 254.844 41.2962C254.713 41.4592 254.746 41.7283 254.942 42.1033L258.81 49.538L258.051 50.5163L260.573 45.4538C261.177 44.2799 261.495 43.3587 261.528 42.6902C261.577 42.0217 261.414 41.5489 261.038 41.2717C260.679 40.9783 260.165 40.8234 259.496 40.8071V40.3179C260.051 40.3342 260.573 40.3505 261.063 40.3668C261.553 40.3832 262.051 40.3913 262.557 40.3913C262.916 40.3913 263.25 40.3832 263.56 40.3668C263.887 40.3505 264.173 40.3342 264.417 40.3179ZM259.178 48.9266V55.0652C259.178 55.6522 259.218 56.0924 259.3 56.3859C259.398 56.6793 259.577 56.875 259.839 56.9728C260.1 57.0707 260.492 57.1359 261.014 57.1685V57.6576C260.573 57.625 260.002 57.6087 259.3 57.6087C258.614 57.5924 257.929 57.5842 257.243 57.5842C256.476 57.5842 255.75 57.5924 255.064 57.6087C254.378 57.6087 253.84 57.625 253.448 57.6576V57.1685C253.97 57.1359 254.362 57.0707 254.623 56.9728C254.884 56.875 255.056 56.6793 255.137 56.3859C255.235 56.0924 255.284 55.6522 255.284 55.0652V50.0516L257.415 51.5679L259.178 48.9266Z" fill="white"/>
<path d="M275.289 40C277.019 40 278.529 40.3505 279.818 41.0516C281.124 41.7527 282.136 42.7636 282.855 44.0842C283.573 45.3886 283.932 46.9783 283.932 48.8533C283.932 50.6793 283.565 52.2772 282.83 53.6467C282.096 55.0163 281.067 56.0842 279.745 56.8505C278.439 57.6168 276.945 58 275.264 58C273.534 58 272.016 57.6495 270.71 56.9484C269.42 56.2473 268.416 55.2364 267.698 53.9158C266.98 52.5951 266.621 51.0054 266.621 49.1467C266.621 47.3207 266.988 45.7228 267.723 44.3533C268.473 42.9837 269.494 41.9158 270.783 41.1495C272.089 40.3832 273.591 40 275.289 40ZM275.191 40.4402C274.277 40.4402 273.477 40.8071 272.791 41.5408C272.122 42.2745 271.599 43.2853 271.224 44.5734C270.865 45.8614 270.685 47.3533 270.685 49.0489C270.685 50.7772 270.889 52.2853 271.297 53.5734C271.722 54.8451 272.285 55.8315 272.987 56.5326C273.705 57.2174 274.497 57.5598 275.362 57.5598C276.276 57.5598 277.068 57.1929 277.737 56.4592C278.423 55.7255 278.945 54.7147 279.304 53.4266C279.68 52.1223 279.867 50.6304 279.867 48.9511C279.867 47.2065 279.655 45.6984 279.231 44.4266C278.823 43.1549 278.259 42.1766 277.541 41.4918C276.839 40.7908 276.056 40.4402 275.191 40.4402Z" fill="white"/>
<path d="M287.584 40.3424C287.992 40.3587 288.539 40.375 289.225 40.3913C289.927 40.4076 290.62 40.4158 291.306 40.4158C292.089 40.4158 292.848 40.4076 293.583 40.3913C294.318 40.375 294.84 40.3668 295.15 40.3668C297.419 40.3668 299.117 40.7418 300.243 41.4918C301.369 42.2255 301.933 43.269 301.933 44.6223C301.933 45.1766 301.818 45.7391 301.59 46.3098C301.361 46.8641 300.969 47.3859 300.414 47.875C299.876 48.3478 299.133 48.731 298.186 49.0245C297.24 49.3016 296.048 49.4402 294.611 49.4402H292.261V48.9511H294.367C295.33 48.9511 296.056 48.7717 296.546 48.413C297.052 48.038 297.395 47.5489 297.574 46.9457C297.77 46.3261 297.868 45.6413 297.868 44.8913C297.868 43.6033 297.639 42.6087 297.182 41.9076C296.725 41.1902 295.942 40.8315 294.832 40.8315C294.195 40.8315 293.779 40.9701 293.583 41.2473C293.403 41.5245 293.314 42.087 293.314 42.9348V55.0652C293.314 55.6522 293.355 56.0924 293.436 56.3859C293.534 56.6793 293.714 56.875 293.975 56.9728C294.236 57.0707 294.628 57.1359 295.15 57.1685V57.6576C294.709 57.625 294.154 57.6087 293.485 57.6087C292.816 57.5924 292.138 57.5842 291.453 57.5842C290.669 57.5842 289.927 57.5924 289.225 57.6087C288.539 57.6087 287.992 57.625 287.584 57.6576V57.1685C288.106 57.1359 288.498 57.0707 288.759 56.9728C289.021 56.875 289.192 56.6793 289.274 56.3859C289.372 56.0924 289.42 55.6522 289.42 55.0652V42.9348C289.42 42.3315 289.372 41.8913 289.274 41.6141C289.192 41.3207 289.012 41.125 288.735 41.0272C288.474 40.913 288.09 40.8478 287.584 40.8315V40.3424ZM292.212 49.0245C292.914 49.0408 293.518 49.0734 294.024 49.1223C294.546 49.1712 295.003 49.2201 295.395 49.269C295.787 49.3016 296.138 49.3261 296.448 49.3424C297.933 49.4728 299.027 49.7908 299.729 50.2962C300.447 50.8016 300.912 51.5598 301.125 52.5707L301.688 55.0897C301.835 55.7418 301.99 56.1984 302.153 56.4592C302.316 56.7201 302.553 56.8505 302.863 56.8505C303.075 56.8342 303.247 56.7853 303.377 56.7038C303.524 56.606 303.679 56.4674 303.842 56.288L304.185 56.5815C303.744 57.087 303.271 57.4457 302.765 57.6576C302.259 57.8859 301.647 58 300.929 58C300.047 58 299.321 57.8125 298.749 57.4375C298.178 57.0625 297.803 56.3696 297.623 55.3587L297.182 52.913C297.068 52.2283 296.929 51.6332 296.766 51.1277C296.603 50.606 296.374 50.1984 296.081 49.9049C295.803 49.5951 295.411 49.4402 294.905 49.4402H292.261L292.212 49.0245Z" fill="white"/>
<path d="M314.674 40.2935L320.624 55.6033C320.853 56.1902 321.106 56.5978 321.383 56.8261C321.677 57.038 321.938 57.1522 322.167 57.1685V57.6576C321.677 57.625 321.098 57.6087 320.428 57.6087C319.775 57.5924 319.114 57.5842 318.445 57.5842C317.694 57.5842 316.984 57.5924 316.315 57.6087C315.646 57.6087 315.115 57.625 314.723 57.6576V57.1685C315.556 57.1359 316.078 56.9973 316.29 56.7527C316.519 56.4918 316.47 55.9457 316.143 55.1141L311.981 43.7418L312.422 43.106L308.7 52.7908C308.243 53.9973 308.014 54.9103 308.014 55.5299C308.031 56.1495 308.235 56.5734 308.626 56.8016C309.018 57.0136 309.541 57.1359 310.194 57.1685V57.6576C309.655 57.625 309.141 57.6087 308.651 57.6087C308.161 57.5924 307.663 57.5842 307.157 57.5842C306.798 57.5842 306.455 57.5924 306.129 57.6087C305.819 57.6087 305.541 57.625 305.296 57.6576V57.1685C305.639 57.1033 305.99 56.8832 306.349 56.5082C306.708 56.1332 307.059 55.4973 307.402 54.6005L312.985 40.2935C313.246 40.3098 313.524 40.3179 313.817 40.3179C314.128 40.3179 314.413 40.3098 314.674 40.2935ZM316.388 50.6141V51.1033H309.092L309.337 50.6141H316.388Z" fill="white"/>
<path d="M338 40.3424C337.935 41.1739 337.886 41.9728 337.853 42.7391C337.837 43.5054 337.829 44.0924 337.829 44.5C337.829 44.8587 337.837 45.2011 337.853 45.5272C337.869 45.8533 337.886 46.1304 337.902 46.3587H337.339C337.078 44.9891 336.743 43.9049 336.335 43.106C335.943 42.3071 335.47 41.7446 334.915 41.4185C334.36 41.0761 333.707 40.9049 332.956 40.9049H332.393V54.8696C332.393 55.5217 332.458 56.0109 332.589 56.337C332.736 56.663 332.997 56.8832 333.372 56.9973C333.748 57.0951 334.295 57.1522 335.013 57.1685V57.6576C334.507 57.6413 333.829 57.625 332.98 57.6087C332.148 57.5924 331.275 57.5842 330.361 57.5842C329.463 57.5842 328.614 57.5924 327.814 57.6087C327.014 57.625 326.369 57.6413 325.88 57.6576V57.1685C326.614 57.1522 327.169 57.0951 327.545 56.9973C327.92 56.8832 328.173 56.663 328.304 56.337C328.434 56.0109 328.5 55.5217 328.5 54.8696V40.9049H327.961C327.21 40.9049 326.557 41.0761 326.002 41.4185C325.447 41.7446 324.974 42.3071 324.582 43.106C324.19 43.8886 323.847 44.9728 323.554 46.3587H322.99C323.023 46.1304 323.039 45.8533 323.039 45.5272C323.056 45.2011 323.064 44.8587 323.064 44.5C323.064 44.0924 323.048 43.5054 323.015 42.7391C322.999 41.9728 322.958 41.1739 322.892 40.3424C323.643 40.3587 324.46 40.375 325.341 40.3913C326.239 40.4076 327.137 40.4158 328.034 40.4158C328.932 40.4158 329.74 40.4158 330.458 40.4158C331.193 40.4158 332.001 40.4158 332.883 40.4158C333.78 40.4158 334.678 40.4076 335.576 40.3913C336.474 40.375 337.282 40.3587 338 40.3424Z" fill="white"/>
</g>
<defs>
<filter id="filter0_d_3053_394" x="18" y="0" width="370" height="118" filterUnits="userSpaceOnUse" color-interpolation-filters="sRGB">
<feFlood flood-opacity="0" result="BackgroundImageFix"/>
<feColorMatrix in="SourceAlpha" type="matrix" values="0 0 0 0 0 0 0 0 0 0 0 0 0 0 0 0 0 0 127 0" result="hardAlpha"/>
<feOffset dy="10"/>
<feGaussianBlur stdDeviation="25"/>
<feComposite in2="hardAlpha" operator="out"/>
<feColorMatrix type="matrix" values="0 0 0 0 0.0460937 0 0 0 0 0.0602344 0 0 0 0 0.1875 0 0 0 0.4 0"/>
<feBlend mode="normal" in2="BackgroundImageFix" result="effect1_dropShadow_3053_394"/>
<feBlend mode="normal" in="SourceGraphic" in2="effect1_dropShadow_3053_394" result="shape"/>
</filter>
</defs>
</svg>
