<svg width="64" height="64" viewBox="0 0 64 64" fill="none" xmlns="http://www.w3.org/2000/svg">
<path d="M55.4367 36.8428C57.9379 37.1052 61.2082 38.8848 63.6069 37.0196C60.1884 36.4036 56.8155 34.641 53.6647 33.4603C56.8952 32.1255 61.1683 34.8349 64 32.0057C60.5188 31.9316 56.9237 30.7223 53.6249 30.0435C56.6103 28.2239 61.2538 30.2317 63.6069 26.9918C60.1542 27.4652 56.4166 26.8321 53.0494 26.6838C55.7158 24.4021 60.6157 25.6685 62.4332 22.1205C59.1002 23.1358 55.3056 23.0902 51.9612 23.4724C54.2402 20.8143 59.2711 21.2877 60.5074 17.4774C57.3681 18.9947 53.6192 19.5537 50.3716 20.4492C52.2062 17.466 57.2542 17.1465 57.8809 13.1879C55.0321 15.1843 51.4028 16.3194 48.3376 17.7112C49.6822 14.477 54.6048 13.3704 54.6048 9.36613C52.0922 11.779 48.6965 13.4674 45.8876 15.3269C46.7081 11.9045 51.4142 10.0563 50.7875 6.09768C48.6851 8.88128 45.5914 11.0774 43.1073 13.3533C43.3865 9.86239 47.7393 7.28414 46.5258 3.4738C44.8849 6.5426 42.1729 9.1779 40.0762 11.836C39.8084 8.3451 43.6998 5.11658 41.888 1.56863C40.7485 4.8656 38.4695 7.91159 36.8229 10.8435C36.0139 7.42103 39.3526 3.63922 36.9996 0.393582C36.3899 3.81604 34.6294 7.19287 33.45 10.3472C32.1168 7.11301 34.8231 2.83494 31.9972 0C31.9231 3.48521 30.7152 7.08449 30.0372 10.3872C28.2197 7.39822 30.2252 2.74938 26.989 0.393582C27.4619 3.85027 26.8295 7.59786 26.6814 10.9633C24.4024 8.29376 25.6672 3.38824 22.1234 1.56863C23.1318 4.90553 23.092 8.70446 23.4737 12.0528C20.8187 9.77112 21.2916 4.7344 17.4856 3.49661C19.0012 6.63387 19.5595 10.3929 20.454 13.6385C17.4457 11.7562 17.1039 6.70232 13.1726 6.07487C15.161 8.92692 16.3005 12.5604 17.6907 15.6292C14.4603 14.2831 13.3549 9.35472 9.35529 9.35472C11.7653 11.8702 13.4518 15.2699 15.3092 18.082C11.8907 17.2606 10.0447 12.5547 6.09062 13.1765C8.86531 15.2813 11.0645 18.3786 13.3378 20.8656C9.85098 20.5861 7.27571 16.2282 3.46978 17.4431C6.53503 19.0859 9.16728 21.8011 11.8223 23.9002C8.33544 24.1683 5.11066 20.2724 1.56681 22.0863C4.85997 23.2271 7.90243 25.5087 10.8309 27.1629C7.41245 27.9729 3.635 24.6246 0.393127 26.9804C3.81163 27.5907 7.18455 29.3533 10.3353 30.5398C7.10478 31.8688 2.83166 29.1594 0 31.9943C3.48117 32.0627 7.07629 33.2777 10.3751 33.9508C7.38966 35.7704 2.74619 33.7626 0.393127 37.0082C3.84581 36.5291 7.58337 37.1622 10.9506 37.3162C8.28416 39.5979 3.38431 38.3259 1.56681 41.8795C4.89985 40.8699 8.69438 40.9098 12.0388 40.5276C9.75982 43.1857 4.72892 42.7123 3.49257 46.5226C6.62619 45.0054 10.3808 44.4521 13.6227 43.5508C11.7881 46.5341 6.74014 46.8535 6.11342 50.8121C8.96216 48.8214 12.5915 47.6863 15.6567 46.2888C14.3121 49.523 9.38948 50.6296 9.38948 54.6339C11.9021 52.221 15.2978 50.5326 18.1067 48.6731C17.2862 52.0956 12.5801 53.9437 13.2068 57.9023C15.3092 55.1244 18.4029 52.9226 20.887 50.6467C20.6079 54.1376 16.255 56.7159 17.4685 60.5319C19.1094 57.4574 21.8214 54.7993 23.9181 52.164C24.1859 55.6549 20.2945 58.8834 22.1063 62.4314C23.2458 59.1401 25.5248 56.0884 27.1714 53.1565C27.9804 56.579 24.6417 60.3608 26.9947 63.6064C27.6044 60.184 29.3649 56.8071 30.5443 53.6528C31.8775 56.8927 29.1712 61.1651 32.0028 64C32.0712 60.5148 33.2791 56.9155 33.9571 53.6128C35.7746 56.6018 33.7691 61.2506 37.0052 63.6064C36.5324 60.1497 37.1648 56.4078 37.3186 53.0424C39.5976 55.7062 38.3271 60.6118 41.8766 62.4314C40.8682 59.0945 40.908 55.2955 40.5263 51.9472C43.1813 54.2289 42.7084 59.2656 46.5144 60.5034C44.9988 57.3604 44.4405 53.6071 43.546 50.3558C46.5258 52.1925 46.8448 57.2463 50.7989 57.8738C48.8105 55.0217 47.671 51.3882 46.2808 48.3194C49.5113 49.6656 50.6166 54.5939 54.6162 54.5939C52.2062 52.0841 50.5197 48.6788 48.6623 45.8667C52.0808 46.6881 53.9268 51.3996 57.8809 50.7722C55.1062 48.6674 52.907 45.5701 50.6337 43.0831C54.1205 43.3626 56.6958 47.7205 60.5074 46.5055C57.4365 44.8628 54.7814 42.1476 52.1492 40.0485C55.6361 39.7804 58.8609 43.6763 62.4047 41.8624C59.1172 40.7216 56.0691 38.4399 53.1406 36.7915C53.8865 36.5866 54.6737 36.5866 55.4196 36.7915M44.0644 39.4039L38.7772 37.1223L36.6463 42.4784L34.5382 37.1793L29.251 39.461L31.53 34.1733L26.1857 32.0399L31.53 29.9066L29.251 24.6132L34.5382 26.8948L36.6634 21.5387L38.7943 26.8891L44.0815 24.6075L41.8025 29.9009L47.1468 32.0342L41.8025 34.1676L44.0644 39.4039ZM36.276 15.1387C27.1087 15.1387 19.1835 22.2859 19.1835 31.9144C19.1835 41.543 27.2397 48.6845 36.276 48.6845C40.6308 48.6866 44.8292 47.059 48.047 44.1212C44.9533 49.1237 37.2218 52.7173 32.8062 52.7173H29.6384C28.1388 52.5169 26.6529 52.2254 25.1886 51.8446C22.0891 50.8933 19.2491 49.2424 16.8874 47.0189C13.1441 43.5964 10.4435 37.2478 10.4435 33.2606V30.534C10.4435 28.7316 11.4805 25.1893 12.0844 23.7462C12.9831 21.5362 14.2876 19.5143 15.9302 17.7854C20.7389 12.8 26.2199 11.0888 31.228 11.0888C35.3975 11.0698 39.4745 12.319 42.9193 14.6709C44.6285 15.8118 46.9588 17.9223 48.0869 19.7704C44.8875 16.7695 40.6601 15.1117 36.276 15.1387Z" fill="white"/>
</svg>
