<svg width="100" height="100" viewBox="0 0 100 100" fill="none" xmlns="http://www.w3.org/2000/svg">
<rect width="100" height="100" rx="50" fill="#E64545"/>
<path d="M73.4367 54.8428C75.9379 55.1052 79.2082 56.8848 81.6069 55.0196C78.1884 54.4036 74.8155 52.641 71.6647 51.4603C74.8952 50.1255 79.1683 52.8349 82 50.0057C78.5188 49.9316 74.9237 48.7223 71.6249 48.0435C74.6103 46.2239 79.2538 48.2317 81.6069 44.9918C78.1542 45.4652 74.4166 44.8321 71.0494 44.6838C73.7158 42.4021 78.6157 43.6685 80.4332 40.1205C77.1002 41.1358 73.3056 41.0902 69.9612 41.4724C72.2402 38.8143 77.2711 39.2877 78.5074 35.4774C75.3681 36.9947 71.6192 37.5537 68.3716 38.4492C70.2062 35.466 75.2542 35.1465 75.8809 31.1879C73.0321 33.1843 69.4028 34.3194 66.3376 35.7112C67.6822 32.477 72.6048 31.3704 72.6048 27.3661C70.0922 29.779 66.6965 31.4674 63.8876 33.3269C64.7081 29.9045 69.4142 28.0563 68.7875 24.0977C66.6851 26.8813 63.5914 29.0774 61.1073 31.3533C61.3865 27.8624 65.7393 25.2841 64.5258 21.4738C62.8849 24.5426 60.1729 27.1779 58.0762 29.836C57.8084 26.3451 61.6998 23.1166 59.888 19.5686C58.7485 22.8656 56.4695 25.9116 54.8229 28.8435C54.0139 25.421 57.3526 21.6392 54.9996 18.3936C54.3899 21.816 52.6294 25.1929 51.45 28.3472C50.1168 25.113 52.8231 20.8349 49.9972 18C49.9231 21.4852 48.7152 25.0845 48.0372 28.3872C46.2197 25.3982 48.2252 20.7494 44.989 18.3936C45.4619 21.8503 44.8295 25.5979 44.6814 28.9633C42.4024 26.2938 43.6672 21.3882 40.1234 19.5686C41.1318 22.9055 41.092 26.7045 41.4737 30.0528C38.8187 27.7711 39.2916 22.7344 35.4856 21.4966C37.0012 24.6339 37.5595 28.3929 38.454 31.6385C35.4457 29.7562 35.1039 24.7023 31.1726 24.0749C33.161 26.9269 34.3005 30.5604 35.6907 33.6292C32.4603 32.2831 31.3549 27.3547 27.3553 27.3547C29.7653 29.8702 31.4518 33.2699 33.3092 36.082C29.8907 35.2606 28.0447 30.5547 24.0906 31.1765C26.8653 33.2813 29.0645 36.3786 31.3378 38.8656C27.851 38.5861 25.2757 34.2282 21.4698 35.4431C24.535 37.0859 27.1673 39.8011 29.8223 41.9002C26.3354 42.1683 23.1107 38.2724 19.5668 40.0863C22.86 41.2271 25.9024 43.5087 28.8309 45.1629C25.4124 45.9729 21.635 42.6246 18.3931 44.9804C21.8116 45.5907 25.1845 47.3533 28.3353 48.5398C25.1048 49.8688 20.8317 47.1594 18 49.9943C21.4812 50.0627 25.0763 51.2777 28.3751 51.9508C25.3897 53.7704 20.7462 51.7626 18.3931 55.0082C21.8458 54.5291 25.5834 55.1622 28.9506 55.3162C26.2842 57.5979 21.3843 56.3259 19.5668 59.8795C22.8998 58.8699 26.6944 58.9098 30.0388 58.5276C27.7598 61.1857 22.7289 60.7123 21.4926 64.5226C24.6262 63.0054 28.3808 62.4521 31.6227 61.5508C29.7881 64.5341 24.7401 64.8535 24.1134 68.8121C26.9622 66.8214 30.5915 65.6863 33.6567 64.2888C32.3121 67.523 27.3895 68.6296 27.3895 72.6339C29.9021 70.221 33.2978 68.5326 36.1067 66.6731C35.2862 70.0955 30.5801 71.9437 31.2068 75.9023C33.3092 73.1244 36.4029 70.9226 38.887 68.6467C38.6079 72.1376 34.255 74.7159 35.4685 78.5319C37.1094 75.4574 39.8214 72.7993 41.9181 70.164C42.1859 73.6549 38.2945 76.8834 40.1063 80.4314C41.2458 77.1401 43.5248 74.0884 45.1714 71.1565C45.9804 74.579 42.6417 78.3608 44.9947 81.6064C45.6044 78.184 47.3649 74.8071 48.5443 71.6528C49.8775 74.8927 47.1712 79.1651 50.0029 82C50.0712 78.5148 51.2791 74.9155 51.9571 71.6128C53.7746 74.6018 51.7691 79.2506 55.0053 81.6064C54.5324 78.1497 55.1648 74.4078 55.3186 71.0424C57.5976 73.7062 56.3271 78.6118 59.8766 80.4314C58.8682 77.0945 58.908 73.2955 58.5263 69.9472C61.1813 72.2289 60.7084 77.2656 64.5144 78.5034C62.9988 75.3604 62.4405 71.6071 61.546 68.3558C64.5258 70.1925 64.8448 75.2463 68.7989 75.8738C66.8105 73.0217 65.671 69.3882 64.2808 66.3194C67.5113 67.6656 68.6166 72.5939 72.6162 72.5939C70.2062 70.0841 68.5197 66.6788 66.6623 63.8667C70.0808 64.6881 71.9268 69.3996 75.8809 68.7722C73.1062 66.6674 70.907 63.5701 68.6337 61.0831C72.1205 61.3626 74.6958 65.7205 78.5074 64.5055C75.4365 62.8627 72.7814 60.1476 70.1492 58.0485C73.6361 57.7804 76.8609 61.6763 80.4047 59.8624C77.1172 58.7216 74.0691 56.4399 71.1406 54.7914C71.8865 54.5866 72.6737 54.5866 73.4196 54.7914M62.0645 57.4039L56.7772 55.1223L54.6463 60.4784L52.5382 55.1793L47.251 57.461L49.53 52.1733L44.1857 50.0399L49.53 47.9066L47.251 42.6132L52.5382 44.8948L54.6634 39.5387L56.7943 44.8891L62.0815 42.6075L59.8025 47.9009L65.1468 50.0342L59.8025 52.1676L62.0645 57.4039ZM54.276 33.1387C45.1087 33.1387 37.1835 40.2859 37.1835 49.9144C37.1835 59.543 45.2397 66.6845 54.276 66.6845C58.6308 66.6865 62.8292 65.059 66.047 62.1212C62.9533 67.1237 55.2218 70.7173 50.8062 70.7173H47.6384C46.1389 70.5169 44.6529 70.2255 43.1886 69.8446C40.0891 68.8933 37.2491 67.2424 34.8874 65.0189C31.1441 61.5964 28.4435 55.2478 28.4435 51.2606V48.5341C28.4435 46.7316 29.4805 43.1893 30.0844 41.7462C30.9831 39.5362 32.2876 37.5143 33.9302 35.7854C38.7389 30.8 44.2199 29.0888 49.228 29.0888C53.3975 29.0699 57.4745 30.319 60.9193 32.6709C62.6285 33.8118 64.9588 35.9223 66.0869 37.7704C62.8875 34.7695 58.6601 33.1117 54.276 33.1387Z" fill="white"/>
<rect x="0.5" y="0.5" width="99" height="99" rx="49.5" stroke="white" stroke-opacity="0.23"/>
</svg>
